<mxfile host="app.diagrams.net" modified="2023-06-20T12:42:59.934Z" agent="Mozilla/5.0 (Windows NT 10.0; Win64; x64) AppleWebKit/537.36 (KHTML, like Gecko) Chrome/114.0.0.0 Safari/537.36" version="21.4.0" etag="gU_xYZ_dlLKIkaNPZWbE" type="github">
  <diagram name="Strona-1" id="KG6gNbI4bBeoy0mMqAqI">
    <mxGraphModel>
      <root>
        <mxCell id="0" />
        <mxCell id="1" parent="0" />
      </root>
    </mxGraphModel>
  </diagram>
</mxfile>
